<svg id="Layer_1" data-name="Layer 1" xmlns="http://www.w3.org/2000/svg" viewBox="0 0 48 48"><defs><style>.cls-1{fill:none;stroke:#000;stroke-linecap:round;stroke-linejoin:round;stroke-width:2px;}</style></defs><title>brain</title><path class="cls-1" d="M28.46,4H29A14,14,0,0,1,43,18V30A14,14,0,0,1,29,44h-.5A4.46,4.46,0,0,1,24,39.54V8.46A4.46,4.46,0,0,1,28.46,4Z"/><path class="cls-1" d="M9.46,4H10A14,14,0,0,1,24,18V30A14,14,0,0,1,10,44h-.5A4.46,4.46,0,0,1,5,39.54V8.46A4.46,4.46,0,0,1,9.46,4Z" transform="translate(29 48) rotate(180)"/><polyline class="cls-1" points="36.53 6.48 31.61 10.69 34.46 17.1"/><path class="cls-1" d="M43,17.1s-6.4,7.83-9.25,6.4"/><line class="cls-1" x1="35.88" y1="27.9" x2="42.77" y2="32.88"/><line class="cls-1" x1="38.02" y1="30.04" x2="33.75" y2="32.17"/><path class="cls-1" d="M6.08,15s6.33,2.56,6.33,7.54"/><line class="cls-1" x1="9.79" y1="17.33" x2="13.12" y2="13.96"/><line class="cls-1" x1="8.45" y1="38.9" x2="13.12" y2="30.33"/><path class="cls-1" d="M10.78,34.61s3-1.44,4.47,0"/><line class="cls-1" x1="17.29" y1="4.17" x2="16.96" y2="8.27"/><line class="cls-1" x1="20" y1="21.79" x2="24" y2="23.07"/><rect class="cls-1" x="-292" y="-20" width="700" height="700"/></svg>